<?xml version="1.0" encoding="UTF-8" standalone="no"?>
<svg
   width="1024"
   height="1024"
   viewBox="0 0 1024 1024"
   version="1.1"
   xmlns="http://www.w3.org/2000/svg">
  <circle
     cx="512"
     cy="512"
     r="512"
     fill="#6D4C8F" />
  <g transform="translate(180, 180) scale(0.65)">
    <!-- Paleta de pintura -->
    <path
       d="M 800,400 C 750,300 680,240 600,220 520,200 440,220 380,280 320,340 300,420 320,500 340,580 400,650 500,700 550,720 600,700 620,650 640,600 620,550 600,500 580,450 600,420 650,430 700,440 750,470 770,520 790,570 780,620 750,650 720,680 670,690 620,680 570,670 520,650 480,620 430,590 390,550 360,500 330,450 310,390 310,330 310,270 330,210 370,160 410,110 460,80 520,60 580,40 640,40 700,60 760,80 810,120 850,170 890,220 920,280 930,340 940,400 930,460 910,520 890,580 860,630 820,670 780,710 730,740 680,760 630,780 570,780 510,770 450,760 400,730 350,690 300,650 270,590 260,530 250,470 260,410 290,360 320,310 370,280 420,270 470,260 520,260 570,270 620,280 660,300 690,330 720,360 740,390 760,430 780,470 780,520 760,560 740,600 710,630 680,650 650,670 610,680 570,680 530,680 490,670 460,650 430,630 410,600 400,570 390,540 390,510 400,480 410,450 430,430 450,420 470,410 500,410 520,420 540,430 560,450 570,470 580,490 580,520 570,540 560,560 550,580 530,590 510,600 490,610 470,610 450,600 430,590 420,570 420,550 420,530 430,520 440,510 450,510 470,510 480,520 490,530 490,540 480,550 470,560 460,570 450,570 440,570 430,560 430,550 430,540 440,540 440,540 440,540 440,540 440,550 440,550 440,550 440,550 z"
       fill="#8B35A4" />
       
    <!-- Colores de la paleta -->
    <circle cx="440" cy="540" r="60" fill="#FF5252" />
    <circle cx="540" cy="420" r="60" fill="#FFEB3B" />
    <circle cx="680" cy="460" r="60" fill="#2196F3" />
    <circle cx="630" cy="570" r="60" fill="#4CAF50" />
    <circle cx="500" cy="630" r="60" fill="#FF9800" />
    
    <!-- Mancha de pintura -->
    <path
       d="m 300,300 c 20,-40 50,-60 90,-60 40,0 70,20 90,60 20,40 20,80 0,120 -20,40 -50,60 -90,60 -40,0 -70,-20 -90,-60 -20,-40 -20,-80 0,-120 z"
       fill="#3F51B5" />
       
    <!-- Pincel -->
    <g transform="rotate(45, 512, 512)">
      <rect x="300" y="600" width="400" height="30" rx="5" ry="5" fill="#8D6E63" />
      <path d="M 300,600 C 300,580 310,560 330,550 350,540 380,540 400,550 420,560 430,580 430,600 L 300,600 Z" fill="#FFEB3B" />
      <path d="M 300,630 C 300,650 310,670 330,680 350,690 380,690 400,680 420,670 430,650 430,630 L 300,630 Z" fill="#FFEB3B" />
    </g>
  </g>
</svg> 